<svg width="27" height="55" viewBox="0 0 27 55" fill="none" xmlns="http://www.w3.org/2000/svg">
<path id="Vector" d="M22.4823 21.4155C19.6654 23.5411 19.0807 27.314 19.0276 29.8647C14.563 24.657 27.3189 9.4058 12.809 0C21.7913 11.6377 0 23.1159 0 40.2802C0 47.029 4.19882 52.9275 13.4468 55C22.4823 53.087 27 47.029 27 40.2802C26.9468 30.2367 20.6752 26.8889 22.4823 21.4155ZM13.4468 49.4734C8.50393 49.4734 4.51771 45.4879 4.51771 40.5459C4.51771 35.6039 8.50393 31.6184 13.4468 31.6184C18.3898 31.6184 22.376 35.6039 22.376 40.5459C22.376 45.4879 18.3366 49.4734 13.4468 49.4734Z" fill="#FFC831"/>
</svg>
